<svg version="1.2" xmlns="http://www.w3.org/2000/svg" viewBox="0 0 215 60" width="215" height="60">
	<title>Divine Construction </title>
	<style>
	</style>
	<path id="Divine Construction" fill="#ff9d00" aria-label="Divine Construction"  d="m4.83 26.7c0 1.7 0.6 2.63 1.7 2.63h3.48c5.04 0 8.2-3.93 8.2-11.75c0-8.55-3.78-11.65-8.2-11.65h-3.48c-1.1 0-1.7 0.93-1.7 2.63zm3.8-2.07v-14.02h1.38c2.62 0 4.22 1.83 4.22 6.89c0 5.58-1.74 7.13-4.22 7.13zm11.52-16.99c0 1.33 0.7 2.42 1.56 2.42h0.92c0.86 0 1.56-1.09 1.56-2.42c0-1.33-0.7-2.42-1.56-2.42h-0.92c-0.86 0-1.56 1.09-1.56 2.42zm0.16 19.06c0 1.58 0.84 2.89 1.86 2.89c1.02 0 1.86-1.31 1.86-2.89v-11.62c0-1.58-0.84-2.88-1.86-2.88c-1.02 0-1.86 1.3-1.86 2.88zm5.8-11.69c0 0.31 0.06 0.62 0.12 0.93l2.52 10.88c0.38 1.65 1.36 2.76 2.54 2.76c1.18 0 2.16-1.11 2.54-2.76l2.58-11.13c0.06-0.28 0.1-0.59 0.1-0.9c0-1.42-0.74-2.6-1.68-2.6c-0.76 0-1.4 0.81-1.6 1.86l-1.24 6.42c-0.16 0.83-0.3 1.67-0.38 2.32c-0.06 0.37-0.1 0.75-0.14 1.12h-0.12c-0.02-0.37-0.06-0.75-0.12-1.12c-0.08-0.65-0.2-1.52-0.36-2.35l-1.2-6.23c-0.22-1.18-0.92-2.02-1.74-2.02c-1 0-1.82 1.27-1.82 2.82zm12.28-7.38c0 1.34 0.7 2.42 1.56 2.42h0.92c0.86 0 1.56-1.08 1.56-2.42c0-1.33-0.7-2.41-1.56-2.41h-0.92c-0.86 0-1.56 1.08-1.56 2.41zm0.16 19.07c0 1.58 0.84 2.88 1.86 2.88c1.02 0 1.86-1.3 1.86-2.88v-11.63c0-1.58-0.84-2.88-1.86-2.88c-1.02 0-1.86 1.3-1.86 2.88zm6.32 0c0 1.58 0.84 2.89 1.86 2.89c1.02 0 1.86-1.31 1.86-2.89v-6.41c0-3.23 1.04-3.82 1.8-3.82c0.64 0 1.58 0.5 1.58 3.1v7.13c0 1.58 0.84 2.89 1.86 2.89c1.02 0 1.86-1.31 1.86-2.89v-8.03c0-3.87-1.06-6.57-3.84-6.57c-1.86 0-2.98 1.55-3.52 3.2v-0.44c0-1.46-0.78-2.66-1.74-2.66c-0.94 0-1.72 1.2-1.72 2.66zm12.72-5.76c0 5.42 2.32 8.86 6.1 8.86c1.96 0 4.1-1.01 4.1-3.53c0-1.34-0.68-2.39-1.5-2.39c-1.23 0-1.39 1.86-2.9 1.86c-1.26 0-2.1-1.3-2.24-3.32h5.9c1.28 0 1.64-0.99 1.64-2.72c0-3.63-1.92-7.69-5.46-7.69c-3.48 0-5.64 3.78-5.64 8.93zm3.58-1.9c0.14-1.98 0.88-3.22 2-3.22c1.12 0 1.88 1.24 1.94 3.22zm13.98-1.2c0 7.44 2.52 12.02 7.4 12.02c2.68 0 6.1-1.81 6.1-5.64c0-1.61-0.84-2.91-1.86-2.91c-1.94 0-1.57 3.87-4.24 3.87c-1.82 0-3.36-2.2-3.36-7.62c0-5.24 1.46-7.44 3.36-7.44c2.55 0 2.22 3.47 4.06 3.47c1 0 1.82-1.24 1.82-2.82c0-3.74-3.39-5.33-5.88-5.33c-4.54 0-7.4 5.05-7.4 12.4zm14.82 3.1c0 5.05 2 8.86 5.68 8.86c3.68 0 5.8-3.78 5.8-8.93c0-5.02-2-8.86-5.72-8.86c-3.68 0-5.76 3.78-5.76 8.93zm3.72-0.07c0-2.85 0.62-4.74 2-4.74c1.4 0 2.02 1.92 2.02 4.77c0 2.89-0.62 4.78-2 4.78c-1.38 0-2.02-1.89-2.02-4.81zm9.76 5.83c0 1.58 0.84 2.88 1.86 2.88c1.02 0 1.86-1.3 1.86-2.88v-6.42c0-3.22 1.04-3.81 1.8-3.81c0.64 0 1.58 0.5 1.58 3.1v7.13c0 1.58 0.84 2.88 1.86 2.88c1.02 0 1.86-1.3 1.86-2.88v-8.03c0-3.87-1.06-6.57-3.84-6.57c-1.86 0-2.98 1.55-3.52 3.19v-0.43c0-1.46-0.78-2.67-1.74-2.67c-0.94 0-1.72 1.21-1.72 2.67zm17.56 3.16c3.8 0 4.98-2.14 4.98-5.61c0-2.79-1.02-4.56-3.42-5.33l-1.56-0.5c-0.88-0.28-1.24-0.59-1.24-1.3c0-0.9 0.54-1.43 1.26-1.43c2.08 0 1.84 2.05 3.3 2.05c0.68 0 1.16-0.9 1.16-1.86c0-2.39-2.4-3.87-4.28-3.87c-2.96 0-4.94 1.89-4.94 5.48c0 2.76 1.18 4.53 3.64 5.3l1.36 0.44c0.98 0.31 1.16 0.71 1.16 1.33c0 1.02-0.52 1.49-1.28 1.49c-1.93 0-2.25-2.42-3.64-2.42c-0.98 0-1.48 0.84-1.48 2.54c0 2.58 2.16 3.69 4.98 3.69zm5.9-15.5c0 1.02 0.54 1.89 1.22 1.89h0.56l-0.02 7.41c-0.02 4 0.88 6.05 3.5 6.05c1.27 0 2.72-0.07 2.72-2.36c0-1.08-0.6-1.49-1.44-1.86c-0.45-0.2-1.08-0.56-1.08-2.32v-6.92h1.1c0.68 0 1.22-0.87 1.22-1.92c0-1.02-0.54-1.89-1.22-1.89h-1.18v-2.14c0-1.46-0.76-2.63-1.7-2.63c-0.9 0-1.66 1.11-1.7 2.48l-0.08 2.29h-0.68c-0.68 0-1.22 0.87-1.22 1.92zm9.72 12.34c0 1.58 0.84 2.88 1.86 2.88c1.02 0 1.86-1.3 1.86-2.88v-5.08c0-2.24 0.46-4.47 2.12-4.47c0.98 0 1.56-1.27 1.56-2.45c0-0.99-0.4-2.51-1.74-2.51c-1.18 0-1.72 1.92-2.12 3.41h-0.08v-0.74c0-1.46-0.78-2.67-1.74-2.67c-0.94 0-1.72 1.21-1.72 2.67zm8.96-3.54c0 3.66 0.94 6.58 3.84 6.58c1.78 0 2.78-1.65 3.32-3.48v0.65c0 1.46 0.78 2.67 1.72 2.67c0.96 0 1.74-1.21 1.74-2.67v-11.84c0-1.58-0.84-2.88-1.86-2.88c-1.02 0-1.86 1.3-1.86 2.88v6.57c0 2.52-0.68 3.76-1.7 3.76c-0.58 0-1.48-0.53-1.48-3.14v-7.19c0-1.58-0.84-2.88-1.86-2.88c-1.02 0-1.86 1.3-1.86 2.88zm12.62-2.23c0 5.39 1.8 8.87 5.62 8.87c2.08 0 4.6-1.16 4.6-4.13c0-1.49-0.58-2.35-1.52-2.35c-1.41 0-1.44 2.35-3.06 2.35c-1.06 0-1.92-1.3-1.92-4.77c0-3.35 0.82-4.78 1.92-4.78c1.61 0 1.57 2.08 2.96 2.08c0.9 0 1.44-0.8 1.44-2.23c0-2.9-2.35-3.97-4.26-3.97c-3.78 0-5.78 3.97-5.78 8.93zm11.02-6.57c0 1.02 0.54 1.89 1.22 1.89h0.56l-0.02 7.41c-0.02 4 0.88 6.04 3.5 6.04c1.27 0 2.72-0.06 2.72-2.35c0-1.09-0.6-1.49-1.44-1.86c-0.45-0.2-1.08-0.56-1.08-2.33v-6.91h1.1c0.68 0 1.22-0.87 1.22-1.92c0-1.03-0.54-1.89-1.22-1.89h-1.18v-2.14c0-1.46-0.76-2.64-1.7-2.64c-0.9 0-1.66 1.12-1.7 2.48l-0.08 2.3h-0.68c-0.68 0-1.22 0.86-1.22 1.92zm9.56-6.73c0 1.33 0.7 2.42 1.56 2.42h0.92c0.86 0 1.56-1.09 1.56-2.42c0-1.33-0.7-2.42-1.56-2.42h-0.92c-0.86 0-1.56 1.09-1.56 2.42zm0.16 19.07c0 1.58 0.84 2.88 1.86 2.88c1.02 0 1.86-1.3 1.86-2.88v-11.63c0-1.58-0.84-2.88-1.86-2.88c-1.02 0-1.86 1.3-1.86 2.88zm5.72-5.77c0 5.06 2 8.87 5.68 8.87c3.68 0 5.8-3.78 5.8-8.93c0-5.02-2-8.86-5.72-8.86c-3.68 0-5.76 3.78-5.76 8.92zm3.72-0.06c0-2.85 0.62-4.74 2-4.74c1.4 0 2.02 1.92 2.02 4.77c0 2.89-0.62 4.78-2 4.78c-1.38 0-2.02-1.89-2.02-4.81zm9.76 5.83c0 1.58 0.84 2.88 1.86 2.88c1.02 0 1.86-1.3 1.86-2.88v-6.42c0-3.22 1.04-3.81 1.8-3.81c0.64 0 1.58 0.5 1.58 3.1v7.13c0 1.58 0.84 2.88 1.86 2.88c1.02 0 1.86-1.3 1.86-2.88v-8.03c0-3.87-1.06-6.57-3.84-6.57c-1.86 0-2.98 1.55-3.52 3.19v-0.43c0-1.46-0.78-2.67-1.74-2.67c-0.94 0-1.72 1.21-1.72 2.67z" />
	<path id="we provide a vision with perfect" fill="#ffffff" aria-label="we provide a vision with perfection"  d="m7.32 43.87c0 0.08 0.02 0.16 0.03 0.22l0.93 3.84c0.15 0.66 0.74 1.16 1.46 1.16c0.71 0 1.31-0.5 1.46-1.18l0.33-1.47c0.07-0.3 0.12-0.64 0.17-0.91l0.07-0.46h0.08c0.01 0.16 0.03 0.31 0.07 0.46c0.04 0.27 0.1 0.62 0.16 0.92l0.32 1.44c0.15 0.69 0.76 1.2 1.5 1.2c0.71 0 1.32-0.5 1.48-1.17l0.94-3.88c0.01-0.07 0.03-0.14 0.03-0.21c0-0.51-0.41-0.91-0.91-0.91c-0.44 0-0.82 0.31-0.89 0.73l-0.39 2.04c-0.07 0.36-0.13 0.81-0.19 1.2l-0.08 0.66h-0.07l-0.11-0.66c-0.07-0.39-0.14-0.84-0.23-1.2l-0.42-1.82c-0.12-0.53-0.61-0.95-1.2-0.95c-0.58 0-1.08 0.42-1.2 0.95l-0.42 1.82c-0.08 0.36-0.16 0.77-0.21 1.11l-0.1 0.57h-0.07l-0.08-0.57c-0.05-0.34-0.12-0.75-0.18-1.11l-0.39-2c-0.09-0.44-0.47-0.77-0.93-0.77c-0.53 0-0.96 0.43-0.96 0.95zm9.72 2.15c0 1.92 1.28 3.15 3.36 3.15c1.08 0 2.25-0.36 2.25-1.26c0-0.47-0.37-0.85-0.82-0.85c-0.68 0-0.77 0.66-1.6 0.66c-0.69 0-1.15-0.46-1.23-1.17h3.25c0.7 0 0.9-0.36 0.9-0.97c0-1.29-1.06-2.73-3-2.73c-1.92 0-3.11 1.34-3.11 3.17zm1.97-0.67c0.08-0.71 0.49-1.15 1.1-1.15c0.62 0 1.04 0.44 1.07 1.15zm7.94 5.17c0 0.56 0.46 1.02 1.02 1.02c0.57 0 1.03-0.46 1.03-1.02v-1.95c0.22 0.2 0.68 0.56 1.47 0.56c1.59 0 2.74-1.22 2.74-3.24c0-1.64-0.78-3.01-2.42-3.01c-1.03 0-1.54 0.47-1.96 1.04v-0.07c0-0.52-0.42-0.93-0.94-0.93c-0.52 0-0.94 0.41-0.94 0.93zm1.99-4.52c0-1.18 0.5-1.68 1.15-1.68c0.56 0 1.06 0.44 1.06 1.68c0 1.24-0.51 1.76-1.11 1.76c-0.59 0-1.1-0.45-1.1-1.76zm5.4 2.07c0 0.56 0.47 1.02 1.03 1.02c0.56 0 1.02-0.46 1.02-1.02v-1.81c0-0.79 0.25-1.58 1.17-1.58c0.53 0 0.85-0.45 0.85-0.87c0-0.35-0.22-0.89-0.95-0.89c-0.65 0-0.95 0.68-1.17 1.21h-0.04v-0.26c0-0.52-0.43-0.95-0.96-0.95c-0.52 0-0.95 0.43-0.95 0.95zm4.66-2.05c0 1.79 1.1 3.15 3.12 3.15c2.02 0 3.19-1.35 3.19-3.17c0-1.78-1.1-3.15-3.15-3.15c-2.02 0-3.16 1.34-3.16 3.17zm2.04-0.02c0-1.01 0.34-1.68 1.1-1.68c0.77 0 1.11 0.68 1.11 1.69c0 1.02-0.34 1.69-1.1 1.69c-0.76 0-1.11-0.67-1.11-1.7zm5.08-2.08c0 0.11 0.04 0.22 0.07 0.33l1.39 3.86c0.2 0.58 0.74 0.98 1.39 0.98c0.65 0 1.19-0.4 1.4-0.98l1.42-3.95c0.03-0.1 0.05-0.21 0.05-0.32c0-0.5-0.4-0.92-0.92-0.92c-0.42 0-0.77 0.28-0.88 0.66l-0.68 2.28c-0.09 0.29-0.17 0.59-0.21 0.82c-0.03 0.13-0.06 0.26-0.08 0.4h-0.06c-0.02-0.14-0.04-0.27-0.07-0.4c-0.04-0.23-0.11-0.54-0.2-0.84l-0.66-2.21c-0.12-0.41-0.5-0.71-0.96-0.71c-0.55 0-1 0.45-1 1zm6.76-2.62c0 0.47 0.38 0.86 0.86 0.86h0.5c0.47 0 0.86-0.39 0.86-0.86c0-0.47-0.39-0.86-0.86-0.86h-0.5c-0.48 0-0.86 0.39-0.86 0.86zm0.09 6.77c0 0.56 0.46 1.02 1.02 1.02c0.56 0 1.02-0.46 1.02-1.02v-4.13c0-0.56-0.46-1.02-1.02-1.02c-0.56 0-1.02 0.46-1.02 1.02zm3.17-1.98c0 1.84 0.95 3.04 2.57 3.04c0.86 0 1.45-0.34 1.81-0.79c0.09 0.45 0.48 0.78 0.94 0.78c0.58 0 0.94-0.5 0.94-1.17v-6.57c0-0.56-0.46-1.02-1.02-1.02c-0.56 0-1.02 0.46-1.02 1.02v2.16c-0.24-0.26-0.63-0.65-1.54-0.65c-1.71 0-2.68 1.34-2.68 3.2zm2.06-0.04c0-1.03 0.36-1.73 1.12-1.73c0.76 0 1.09 0.7 1.09 1.72c0 1.02-0.34 1.72-1.1 1.72c-0.76 0-1.11-0.71-1.11-1.71zm5.3-0.02c0 1.92 1.28 3.14 3.36 3.14c1.08 0 2.25-0.36 2.25-1.25c0-0.48-0.37-0.85-0.82-0.85c-0.68 0-0.77 0.66-1.6 0.66c-0.69 0-1.15-0.46-1.23-1.18h3.25c0.7 0 0.9-0.35 0.9-0.96c0-1.29-1.06-2.73-3-2.73c-1.92 0-3.11 1.34-3.11 3.17zm1.97-0.68c0.08-0.7 0.49-1.14 1.1-1.14c0.62 0 1.04 0.44 1.07 1.14zm7.61 1.97c0 1.18 0.94 1.83 2.05 1.83c0.79 0 1.41-0.22 1.88-0.87c0.07 0.46 0.46 0.81 0.95 0.81c0.53 0 0.94-0.45 0.94-0.97v-2.77c0-1.83-1.05-2.49-2.78-2.49c-1.05 0-2.65 0.29-2.65 1.34c0 0.49 0.39 0.8 0.88 0.8c0.67 0 0.81-0.69 1.75-0.69c0.77 0 0.83 0.43 0.83 1.07h-0.75c-1.36 0-3.1 0.21-3.1 1.94zm2-0.12c0-0.65 0.71-0.73 1.21-0.73h0.65v0.09c0 0.71-0.39 1.28-1.14 1.28c-0.4 0-0.72-0.22-0.72-0.64zm7.68-3.28c0 0.11 0.03 0.22 0.07 0.33l1.38 3.87c0.21 0.58 0.75 0.97 1.4 0.97c0.65 0 1.19-0.39 1.4-0.97l1.42-3.95c0.03-0.1 0.05-0.21 0.05-0.32c0-0.51-0.41-0.93-0.92-0.93c-0.42 0-0.77 0.29-0.88 0.66l-0.68 2.28c-0.09 0.3-0.17 0.59-0.21 0.83c-0.04 0.13-0.06 0.26-0.08 0.39h-0.07c-0.01-0.13-0.03-0.26-0.06-0.39c-0.05-0.24-0.11-0.54-0.2-0.84l-0.66-2.21c-0.12-0.42-0.51-0.72-0.96-0.72c-0.55 0-1 0.45-1 1zm6.76-2.61c0 0.47 0.38 0.85 0.85 0.85h0.51c0.47 0 0.86-0.38 0.86-0.85c0-0.48-0.39-0.86-0.86-0.86h-0.51c-0.47 0-0.85 0.38-0.85 0.86zm0.08 6.76c0 0.56 0.47 1.02 1.03 1.02c0.56 0 1.02-0.46 1.02-1.02v-4.12c0-0.56-0.46-1.03-1.02-1.03c-0.56 0-1.03 0.47-1.03 1.03zm5.81 1.12c2.09 0 2.74-0.76 2.74-1.99c0-0.99-0.56-1.62-1.88-1.89l-0.86-0.18c-0.48-0.1-0.68-0.21-0.68-0.46c0-0.32 0.3-0.51 0.69-0.51c1.15 0 1.01 0.73 1.82 0.73c0.37 0 0.64-0.32 0.64-0.66c0-0.85-1.32-1.38-2.36-1.38c-1.63 0-2.72 0.67-2.72 1.95c0 0.98 0.65 1.61 2.01 1.88l0.74 0.15c0.54 0.11 0.64 0.26 0.64 0.48c0 0.36-0.28 0.53-0.7 0.53c-1.07 0-1.24-0.86-2-0.86c-0.54 0-0.82 0.29-0.82 0.9c0 0.91 1.19 1.31 2.74 1.31zm3.8-7.89c0 0.47 0.38 0.86 0.85 0.86h0.51c0.47 0 0.86-0.39 0.86-0.86c0-0.47-0.39-0.86-0.86-0.86h-0.51c-0.47 0-0.85 0.39-0.85 0.86zm0.08 6.77c0 0.56 0.47 1.02 1.03 1.02c0.56 0 1.02-0.46 1.02-1.02v-4.13c0-0.56-0.46-1.02-1.02-1.02c-0.56 0-1.03 0.46-1.03 1.02zm3.15-2.04c0 1.79 1.1 3.14 3.12 3.14c2.03 0 3.19-1.34 3.19-3.17c0-1.78-1.1-3.14-3.14-3.14c-2.03 0-3.17 1.34-3.17 3.17zm2.05-0.03c0-1.01 0.34-1.68 1.1-1.68c0.77 0 1.11 0.68 1.11 1.69c0 1.03-0.34 1.7-1.1 1.7c-0.76 0-1.11-0.67-1.11-1.71zm5.36 2.07c0 0.56 0.47 1.02 1.03 1.02c0.56 0 1.02-0.46 1.02-1.02v-2.28c0-1.14 0.57-1.35 0.99-1.35c0.35 0 0.87 0.18 0.87 1.1v2.53c0 0.56 0.46 1.02 1.02 1.02c0.56 0 1.03-0.46 1.03-1.02v-2.85c0-1.37-0.59-2.33-2.12-2.33c-1.02 0-1.64 0.55-1.93 1.13v-0.15c0-0.52-0.43-0.95-0.96-0.95c-0.52 0-0.95 0.43-0.95 0.95zm9.68-4.19c0 0.08 0.03 0.15 0.04 0.22l0.92 3.84c0.16 0.66 0.75 1.15 1.46 1.15c0.72 0 1.31-0.49 1.47-1.17l0.33-1.48c0.06-0.3 0.12-0.64 0.16-0.9l0.08-0.46h0.08c0.01 0.15 0.03 0.31 0.06 0.46c0.05 0.26 0.1 0.62 0.17 0.91l0.32 1.44c0.15 0.7 0.76 1.2 1.49 1.2c0.72 0 1.32-0.49 1.49-1.16l0.93-3.89c0.01-0.06 0.04-0.14 0.04-0.21c0-0.5-0.41-0.91-0.92-0.91c-0.44 0-0.81 0.31-0.89 0.74l-0.38 2.03c-0.07 0.37-0.14 0.82-0.19 1.2l-0.09 0.66h-0.06l-0.11-0.66c-0.07-0.38-0.15-0.83-0.24-1.2l-0.41-1.81c-0.12-0.54-0.62-0.96-1.2-0.96c-0.59 0-1.08 0.42-1.2 0.96l-0.42 1.81c-0.09 0.37-0.16 0.77-0.22 1.11l-0.1 0.58h-0.06l-0.08-0.58c-0.06-0.34-0.12-0.74-0.19-1.11l-0.38-2c-0.09-0.44-0.48-0.77-0.94-0.77c-0.53 0-0.96 0.43-0.96 0.96zm9.97-2.58c0 0.48 0.39 0.86 0.86 0.86h0.5c0.48 0 0.86-0.38 0.86-0.86c0-0.47-0.38-0.85-0.86-0.85h-0.5c-0.47 0-0.86 0.38-0.86 0.85zm0.09 6.77c0 0.56 0.46 1.02 1.02 1.02c0.56 0 1.02-0.46 1.02-1.02v-4.13c0-0.56-0.46-1.02-1.02-1.02c-0.56 0-1.02 0.46-1.02 1.02zm2.84-4.37c0 0.36 0.29 0.67 0.67 0.67h0.31l-0.02 2.63c-0.01 1.42 0.49 2.14 1.93 2.14c0.7 0 1.5-0.02 1.5-0.83c0-0.39-0.33-0.53-0.8-0.66c-0.24-0.07-0.59-0.2-0.59-0.83v-2.45h0.6c0.38 0 0.68-0.31 0.68-0.68c0-0.37-0.3-0.68-0.68-0.68h-0.64v-0.75c0-0.52-0.42-0.94-0.94-0.94c-0.49 0-0.91 0.4-0.93 0.88l-0.05 0.81h-0.37c-0.38 0-0.67 0.31-0.67 0.69zm5.34 4.37c0 0.57 0.46 1.03 1.03 1.03c0.56 0 1.02-0.46 1.02-1.03v-2.28c0-1.15 0.57-1.36 0.99-1.36c0.35 0 0.87 0.18 0.87 1.1v2.54c0 0.57 0.46 1.03 1.02 1.03c0.56 0 1.02-0.46 1.02-1.03v-2.86c0-1.37-0.58-2.33-2.11-2.33c-0.97 0-1.52 0.49-1.79 1.05v-2.54c0-0.56-0.46-1.03-1.02-1.03c-0.57 0-1.03 0.47-1.03 1.03zm10.08 2.45c0 0.56 0.46 1.02 1.02 1.02c0.56 0 1.02-0.46 1.02-1.02v-1.95c0.22 0.2 0.69 0.56 1.48 0.56c1.58 0 2.74-1.22 2.74-3.24c0-1.64-0.78-3-2.42-3c-1.04 0-1.54 0.46-1.96 1.03v-0.07c0-0.51-0.42-0.93-0.95-0.93c-0.51 0-0.93 0.42-0.93 0.93zm1.99-4.52c0-1.17 0.49-1.68 1.14-1.68c0.56 0 1.07 0.44 1.07 1.68c0 1.25-0.52 1.76-1.11 1.76c-0.59 0-1.1-0.45-1.1-1.76zm5.07 0.02c0 1.93 1.28 3.15 3.36 3.15c1.07 0 2.25-0.36 2.25-1.25c0-0.48-0.37-0.85-0.82-0.85c-0.68 0-0.77 0.66-1.6 0.66c-0.69 0-1.15-0.46-1.23-1.18h3.24c0.71 0 0.91-0.35 0.91-0.97c0-1.28-1.06-2.72-3.01-2.72c-1.91 0-3.1 1.34-3.1 3.16zm1.97-0.67c0.08-0.7 0.48-1.14 1.1-1.14c0.62 0 1.03 0.44 1.07 1.14zm5.19 2.72c0 0.56 0.46 1.02 1.02 1.02c0.56 0 1.02-0.46 1.02-1.02v-1.8c0-0.8 0.26-1.59 1.17-1.59c0.54 0 0.86-0.45 0.86-0.87c0-0.35-0.22-0.89-0.96-0.89c-0.65 0-0.94 0.68-1.16 1.21h-0.05v-0.26c0-0.52-0.43-0.95-0.96-0.95c-0.51 0-0.94 0.43-0.94 0.95zm4.35-4.39c0 0.37 0.3 0.68 0.68 0.68h0.3v3.71c0 0.56 0.47 1.02 1.03 1.02c0.56 0 1.02-0.46 1.02-1.02v-3.71h0.6c0.38 0 0.68-0.31 0.68-0.68c0-0.36-0.3-0.67-0.68-0.67h-0.6v-0.25c0-0.62 0.22-0.8 0.78-0.8c0.42 0 0.63-0.41 0.63-0.81c0-0.62-0.43-0.77-0.97-0.77c-1.79 0-2.49 0.81-2.49 2.44v0.19h-0.3c-0.38 0-0.68 0.31-0.68 0.67zm4.84 2.34c0 1.93 1.28 3.15 3.36 3.15c1.08 0 2.25-0.36 2.25-1.26c0-0.47-0.37-0.84-0.82-0.84c-0.68 0-0.77 0.66-1.6 0.66c-0.69 0-1.15-0.46-1.23-1.18h3.25c0.7 0 0.9-0.35 0.9-0.97c0-1.28-1.06-2.73-3-2.73c-1.92 0-3.11 1.35-3.11 3.17zm1.97-0.67c0.08-0.7 0.49-1.14 1.1-1.14c0.62 0 1.04 0.44 1.07 1.14zm4.86 0.67c0 1.92 0.99 3.15 3.09 3.15c1.15 0 2.53-0.41 2.53-1.46c0-0.53-0.31-0.84-0.83-0.84c-0.78 0-0.8 0.84-1.69 0.84c-0.58 0-1.05-0.47-1.05-1.7c0-1.19 0.45-1.69 1.05-1.69c0.89 0 0.87 0.73 1.63 0.73c0.5 0 0.8-0.28 0.8-0.79c0-1.03-1.3-1.41-2.35-1.41c-2.08 0-3.18 1.41-3.18 3.17zm6.06-2.33c0 0.36 0.3 0.67 0.67 0.67h0.31l-0.01 2.63c-0.01 1.42 0.49 2.15 1.93 2.15c0.69 0 1.49-0.03 1.49-0.84c0-0.39-0.33-0.53-0.79-0.66c-0.25-0.07-0.59-0.2-0.59-0.83v-2.45h0.6c0.38 0 0.67-0.31 0.67-0.68c0-0.36-0.29-0.67-0.67-0.67h-0.65v-0.76c0-0.52-0.42-0.94-0.93-0.94c-0.5 0-0.92 0.4-0.94 0.88l-0.04 0.82h-0.38c-0.37 0-0.67 0.31-0.67 0.68zm5.26-2.39c0 0.48 0.39 0.86 0.86 0.86h0.51c0.47 0 0.85-0.38 0.85-0.86c0-0.47-0.38-0.85-0.85-0.85h-0.51c-0.47 0-0.86 0.38-0.86 0.85zm0.09 6.77c0 0.56 0.46 1.02 1.02 1.02c0.56 0 1.03-0.46 1.03-1.02v-4.13c0-0.56-0.47-1.02-1.03-1.02c-0.56 0-1.02 0.46-1.02 1.02zm3.15-2.04c0 1.79 1.1 3.14 3.12 3.14c2.02 0 3.19-1.34 3.19-3.16c0-1.79-1.1-3.15-3.15-3.15c-2.02 0-3.16 1.34-3.16 3.17zm2.04-0.02c0-1.02 0.34-1.69 1.1-1.69c0.77 0 1.11 0.68 1.11 1.7c0 1.02-0.34 1.69-1.1 1.69c-0.76 0-1.11-0.67-1.11-1.7zm5.37 2.06c0 0.56 0.46 1.03 1.02 1.03c0.56 0 1.03-0.47 1.03-1.03v-2.27c0-1.15 0.57-1.36 0.99-1.36c0.35 0 0.86 0.18 0.86 1.1v2.53c0 0.56 0.47 1.03 1.03 1.03c0.56 0 1.02-0.47 1.02-1.03v-2.85c0-1.37-0.58-2.33-2.11-2.33c-1.02 0-1.64 0.55-1.94 1.14v-0.16c0-0.52-0.43-0.94-0.95-0.94c-0.52 0-0.95 0.42-0.95 0.94z" />
</svg>