<svg version="1.2" xmlns="http://www.w3.org/2000/svg" viewBox="0 0 215 60" width="215" height="60">
	<title>logo Divine Construction</title>
	<style>
	</style>
	<path id="Divine Construction" fill="#ff9d00" aria-label="Divine Construction"  d="m5.02 27.46c0 1.21 0.67 1.87 1.9 1.87h3.91c5.65 0 9.2-2.79 9.2-8.33c0-6.08-4.24-8.28-9.2-8.28h-3.91c-1.23 0-1.9 0.66-1.9 1.87zm4.26-1.47v-9.94h1.55c2.94 0 4.73 1.29 4.73 4.88c0 3.96-1.95 5.06-4.73 5.06zm12.82 1.99c0 0.81 0.68 1.48 1.51 1.48c0.84 0 1.51-0.67 1.51-1.48v-8.93c0-0.81-0.67-1.48-1.51-1.48c-0.83 0-1.51 0.67-1.51 1.48zm4.88-8.97c0 0.16 0.03 0.31 0.08 0.47l2.87 8.43c0.32 0.89 1.18 1.55 2.2 1.55c1.04 0 1.92-0.64 2.22-1.55l2.91-8.56c0.04-0.12 0.08-0.27 0.08-0.43c0-0.74-0.62-1.34-1.39-1.34c-0.61 0-1.13 0.4-1.3 0.96l-1.89 6.12c-0.17 0.53-0.28 1.01-0.36 1.37c-0.05 0.2-0.08 0.4-0.13 0.57h-0.06c-0.05-0.17-0.08-0.37-0.12-0.57c-0.08-0.36-0.19-0.84-0.37-1.37l-1.87-6.06c-0.17-0.59-0.74-1.02-1.4-1.02c-0.81 0-1.47 0.65-1.47 1.43zm12.18 8.97c0 0.82 0.68 1.48 1.51 1.48c0.83 0 1.51-0.66 1.51-1.48v-8.92c0-0.82-0.68-1.48-1.51-1.48c-0.83 0-1.51 0.66-1.51 1.48zm5.38 0.12c0 0.74 0.62 1.36 1.39 1.36c0.76 0 1.39-0.62 1.39-1.36v-6.24h0.08c0.18 0.48 0.38 0.84 0.7 1.36l3.3 5.33c0.33 0.54 0.95 0.91 1.66 0.91c1.05 0 1.91-0.85 1.91-1.88v-8.66c0-0.74-0.61-1.34-1.36-1.34c-0.77 0-1.39 0.6-1.39 1.34v6.07h-0.08c-0.22-0.49-0.34-0.79-0.67-1.32l-3.15-5.12c-0.36-0.57-1-0.97-1.74-0.97c-1.13 0-2.04 0.91-2.04 2zm12.79-0.08c0 0.85 0.47 1.31 1.34 1.31h6.1c0.66 0 1.21-0.53 1.21-1.2c0-0.64-0.55-1.18-1.21-1.18h-4.45v-2.27h3.41c0.64 0 1.18-0.52 1.18-1.17c0-0.63-0.54-1.16-1.18-1.16h-3.41v-2.26h4.13c0.66 0 1.21-0.54 1.21-1.19c0-0.66-0.55-1.2-1.21-1.2h-5.78c-0.87 0-1.34 0.46-1.34 1.31zm15.7-6.85c0 5.28 2.83 8.53 8.31 8.53c3 0 6.84-1.28 6.84-4c0-1.15-0.94-2.07-2.09-2.07c-2.18 0-1.76 2.75-4.75 2.75c-2.05 0-3.77-1.56-3.77-5.41c0-3.72 1.63-5.28 3.77-5.28c2.85 0 2.49 2.46 4.55 2.46c1.12 0 2.04-0.88 2.04-2c0-2.65-3.81-3.78-6.59-3.78c-5.1 0-8.31 3.58-8.31 8.8zm16.51 2.33c0 3.67 2.15 6.08 5.81 6.08c3.65 0 5.85-2.41 5.85-6.08c0-3.65-2.15-6.05-5.82-6.05c-3.64 0-5.84 2.42-5.84 6.05zm3.17 0c0-2.63 1.15-3.71 2.66-3.71c1.51 0 2.65 1.08 2.65 3.71c0 2.64-1.14 3.73-2.65 3.73c-1.51 0-2.66-1.09-2.66-3.73zm10.33 4.6c0 0.74 0.63 1.35 1.4 1.35c0.75 0 1.38-0.61 1.38-1.35v-6.25h0.08c0.18 0.48 0.38 0.84 0.71 1.36l3.3 5.33c0.33 0.54 0.94 0.91 1.65 0.91c1.05 0 1.92-0.85 1.92-1.88v-8.66c0-0.74-0.62-1.34-1.37-1.34c-0.77 0-1.38 0.6-1.38 1.34v6.07h-0.08c-0.23-0.49-0.35-0.79-0.68-1.32l-3.14-5.12c-0.36-0.57-1.01-0.97-1.75-0.97c-1.13 0-2.04 0.91-2.04 2zm12.53-7.1c0 1.91 1.08 2.99 3.28 3.45l1.94 0.4c1.13 0.23 1.43 0.6 1.43 1.14c0 0.74-0.68 1.11-1.94 1.11c-1.88 0-2.09-1.23-3.42-1.23c-0.79 0-1.43 0.51-1.43 1.28c0 1.79 2.61 2.45 4.98 2.45c3.69 0 4.97-1.84 4.97-3.81c0-1.74-0.96-2.94-3.37-3.45l-1.92-0.4c-1.19-0.25-1.49-0.66-1.49-1.23c0-0.54 0.6-1.01 1.62-1.01c1.83 0 1.83 1.41 3.16 1.41c0.75 0 1.37-0.54 1.37-1.28c0-1.68-2.69-2.41-4.45-2.41c-3.02 0-4.73 1.56-4.73 3.58zm10.58-2.13c0 0.65 0.53 1.17 1.19 1.17h2.26v7.94c0 0.82 0.68 1.48 1.51 1.48c0.84 0 1.51-0.66 1.51-1.48v-7.94h2.27c0.66 0 1.19-0.52 1.19-1.17c0-0.65-0.53-1.17-1.19-1.17h-7.55c-0.66 0-1.19 0.52-1.19 1.17zm11.27 9.11c0 0.82 0.67 1.48 1.51 1.48c0.83 0 1.51-0.66 1.51-1.48v-2.62h1.58l1.76 3.33c0.24 0.46 0.74 0.77 1.29 0.77c0.82 0 1.46-0.63 1.46-1.42c0-0.24-0.06-0.48-0.17-0.66l-1.48-2.79v-0.03c1.31-0.63 2.11-1.76 2.11-3.3c0-2.28-1.68-3.56-4.39-3.56h-3.85c-0.86 0-1.33 0.46-1.33 1.31zm3.02-4.96v-3.15h1.52c1.02 0 1.93 0.28 1.93 1.59c0 1.28-0.91 1.56-1.93 1.56zm8.27 1.89c0 2.73 1.22 4.69 4.98 4.69c3.63 0 4.91-2 4.91-4.69v-5.87c0-0.8-0.68-1.46-1.51-1.46c-0.82 0-1.5 0.66-1.5 1.46v5.97c0 1.24-0.55 2.14-1.91 2.14c-1.39 0-1.94-0.85-1.94-2.14v-5.95c0-0.82-0.67-1.48-1.51-1.48c-0.85 0-1.52 0.66-1.52 1.48zm11.65-1.3c0 3.7 1.98 5.98 5.81 5.98c2.11 0 4.8-0.9 4.8-2.8c0-0.8-0.66-1.45-1.46-1.45c-1.53 0-1.24 1.93-3.34 1.93c-1.43 0-2.64-1.1-2.64-3.8c0-2.6 1.15-3.69 2.64-3.69c2 0 1.75 1.72 3.19 1.72c0.79 0 1.43-0.61 1.43-1.4c0-1.86-2.66-2.65-4.62-2.65c-3.57 0-5.81 2.51-5.81 6.16zm11.25-4.74c0 0.64 0.54 1.17 1.2 1.17h2.26v7.93c0 0.82 0.68 1.48 1.51 1.48c0.83 0 1.51-0.66 1.51-1.48v-7.93h2.26c0.66 0 1.2-0.53 1.2-1.17c0-0.65-0.54-1.17-1.2-1.17h-7.54c-0.66 0-1.2 0.52-1.2 1.17zm11.27 9.1c0 0.82 0.68 1.48 1.51 1.48c0.83 0 1.51-0.66 1.51-1.48v-8.92c0-0.82-0.68-1.48-1.51-1.48c-0.83 0-1.51 0.66-1.51 1.48zm4.86-4.47c0 3.67 2.15 6.07 5.82 6.07c3.64 0 5.84-2.4 5.84-6.07c0-3.65-2.15-6.05-5.81-6.05c-3.65 0-5.85 2.41-5.85 6.05zm3.18 0c0-2.63 1.14-3.71 2.65-3.71c1.51 0 2.66 1.08 2.66 3.71c0 2.64-1.15 3.73-2.66 3.73c-1.51 0-2.65-1.09-2.65-3.73zm10.32 4.59c0 0.74 0.63 1.36 1.4 1.36c0.76 0 1.39-0.62 1.39-1.36v-6.24h0.07c0.19 0.48 0.39 0.84 0.71 1.36l3.3 5.33c0.33 0.54 0.95 0.91 1.65 0.91c1.06 0 1.92-0.85 1.92-1.88v-8.66c0-0.74-0.61-1.34-1.37-1.34c-0.77 0-1.38 0.6-1.38 1.34v6.07h-0.08c-0.22-0.49-0.34-0.79-0.67-1.32l-3.15-5.12c-0.36-0.57-1-0.97-1.74-0.97c-1.14 0-2.05 0.91-2.05 2z" />
	<path id="we provide a vision with perfect" fill="#ffffff" aria-label="we provide a vision with perfection"  d="m7.32 43.87c0 0.08 0.02 0.16 0.03 0.22l0.93 3.84c0.15 0.66 0.74 1.16 1.46 1.16c0.71 0 1.31-0.5 1.46-1.18l0.33-1.47c0.07-0.3 0.12-0.64 0.17-0.91l0.07-0.46h0.08c0.01 0.16 0.03 0.31 0.07 0.46c0.04 0.27 0.1 0.62 0.16 0.92l0.32 1.44c0.15 0.69 0.76 1.2 1.5 1.2c0.71 0 1.32-0.5 1.48-1.17l0.94-3.88c0.01-0.07 0.03-0.14 0.03-0.21c0-0.51-0.41-0.91-0.91-0.91c-0.44 0-0.82 0.31-0.89 0.73l-0.39 2.04c-0.07 0.36-0.13 0.81-0.19 1.2l-0.08 0.66h-0.07l-0.11-0.66c-0.07-0.39-0.14-0.84-0.23-1.2l-0.42-1.82c-0.12-0.53-0.61-0.95-1.2-0.95c-0.58 0-1.08 0.42-1.2 0.95l-0.42 1.82c-0.08 0.36-0.16 0.77-0.21 1.11l-0.1 0.57h-0.07l-0.08-0.57c-0.05-0.34-0.12-0.75-0.18-1.11l-0.39-2c-0.09-0.44-0.47-0.77-0.93-0.77c-0.53 0-0.96 0.43-0.96 0.95zm9.72 2.15c0 1.92 1.28 3.15 3.36 3.15c1.08 0 2.25-0.36 2.25-1.26c0-0.47-0.37-0.85-0.82-0.85c-0.68 0-0.77 0.66-1.6 0.66c-0.69 0-1.15-0.46-1.23-1.17h3.25c0.7 0 0.9-0.36 0.9-0.97c0-1.29-1.06-2.73-3-2.73c-1.92 0-3.11 1.34-3.11 3.17zm1.97-0.67c0.08-0.71 0.49-1.15 1.1-1.15c0.62 0 1.04 0.44 1.07 1.15zm7.94 5.17c0 0.56 0.46 1.02 1.02 1.02c0.57 0 1.03-0.46 1.03-1.02v-1.95c0.22 0.2 0.68 0.56 1.47 0.56c1.59 0 2.74-1.22 2.74-3.24c0-1.64-0.78-3.01-2.42-3.01c-1.03 0-1.54 0.47-1.96 1.04v-0.07c0-0.52-0.42-0.93-0.94-0.93c-0.52 0-0.94 0.41-0.94 0.93zm1.99-4.52c0-1.18 0.5-1.68 1.15-1.68c0.56 0 1.06 0.44 1.06 1.68c0 1.24-0.51 1.76-1.11 1.76c-0.59 0-1.1-0.45-1.1-1.76zm5.4 2.07c0 0.56 0.47 1.02 1.03 1.02c0.56 0 1.02-0.46 1.02-1.02v-1.81c0-0.79 0.25-1.58 1.17-1.58c0.53 0 0.85-0.45 0.85-0.87c0-0.35-0.22-0.89-0.95-0.89c-0.65 0-0.95 0.68-1.17 1.21h-0.04v-0.26c0-0.52-0.43-0.95-0.96-0.95c-0.52 0-0.95 0.43-0.95 0.95zm4.66-2.05c0 1.79 1.1 3.15 3.12 3.15c2.02 0 3.19-1.35 3.19-3.17c0-1.78-1.1-3.15-3.15-3.15c-2.02 0-3.16 1.34-3.16 3.17zm2.04-0.02c0-1.01 0.34-1.68 1.1-1.68c0.77 0 1.11 0.68 1.11 1.69c0 1.02-0.34 1.69-1.1 1.69c-0.76 0-1.11-0.67-1.11-1.7zm5.08-2.08c0 0.11 0.04 0.22 0.07 0.33l1.39 3.86c0.2 0.58 0.74 0.98 1.39 0.98c0.65 0 1.19-0.4 1.4-0.98l1.42-3.95c0.03-0.1 0.05-0.21 0.05-0.32c0-0.5-0.4-0.92-0.92-0.92c-0.42 0-0.77 0.28-0.88 0.66l-0.68 2.28c-0.09 0.29-0.17 0.59-0.21 0.82c-0.03 0.13-0.06 0.26-0.08 0.4h-0.06c-0.02-0.14-0.04-0.27-0.07-0.4c-0.04-0.23-0.11-0.54-0.2-0.84l-0.66-2.21c-0.12-0.41-0.5-0.71-0.96-0.71c-0.55 0-1 0.45-1 1zm6.76-2.62c0 0.47 0.38 0.86 0.86 0.86h0.5c0.47 0 0.86-0.39 0.86-0.86c0-0.47-0.39-0.86-0.86-0.86h-0.5c-0.48 0-0.86 0.39-0.86 0.86zm0.09 6.77c0 0.56 0.46 1.02 1.02 1.02c0.56 0 1.02-0.46 1.02-1.02v-4.13c0-0.56-0.46-1.02-1.02-1.02c-0.56 0-1.02 0.46-1.02 1.02zm3.17-1.98c0 1.84 0.95 3.04 2.57 3.04c0.86 0 1.45-0.34 1.81-0.79c0.09 0.45 0.48 0.78 0.94 0.78c0.58 0 0.94-0.5 0.94-1.17v-6.57c0-0.56-0.46-1.02-1.02-1.02c-0.56 0-1.02 0.46-1.02 1.02v2.16c-0.24-0.26-0.63-0.65-1.54-0.65c-1.71 0-2.68 1.34-2.68 3.2zm2.06-0.04c0-1.03 0.36-1.73 1.12-1.73c0.76 0 1.09 0.7 1.09 1.72c0 1.02-0.34 1.72-1.1 1.72c-0.76 0-1.11-0.71-1.11-1.71zm5.3-0.02c0 1.92 1.28 3.14 3.36 3.14c1.08 0 2.25-0.36 2.25-1.25c0-0.48-0.37-0.85-0.82-0.85c-0.68 0-0.77 0.66-1.6 0.66c-0.69 0-1.15-0.46-1.23-1.18h3.25c0.7 0 0.9-0.35 0.9-0.96c0-1.29-1.06-2.73-3-2.73c-1.92 0-3.11 1.34-3.11 3.17zm1.97-0.68c0.08-0.7 0.49-1.14 1.1-1.14c0.62 0 1.04 0.44 1.07 1.14zm7.61 1.97c0 1.18 0.94 1.83 2.05 1.83c0.79 0 1.41-0.22 1.88-0.87c0.07 0.46 0.46 0.81 0.95 0.81c0.53 0 0.94-0.45 0.94-0.97v-2.77c0-1.83-1.05-2.49-2.78-2.49c-1.05 0-2.65 0.29-2.65 1.34c0 0.49 0.39 0.8 0.88 0.8c0.67 0 0.81-0.69 1.75-0.69c0.77 0 0.83 0.43 0.83 1.07h-0.75c-1.36 0-3.1 0.21-3.1 1.94zm2-0.12c0-0.65 0.71-0.73 1.21-0.73h0.65v0.09c0 0.71-0.39 1.28-1.14 1.28c-0.4 0-0.72-0.22-0.72-0.64zm7.68-3.28c0 0.11 0.03 0.22 0.07 0.33l1.38 3.87c0.21 0.58 0.75 0.97 1.4 0.97c0.65 0 1.19-0.39 1.4-0.97l1.42-3.95c0.03-0.1 0.05-0.21 0.05-0.32c0-0.51-0.41-0.93-0.92-0.93c-0.42 0-0.77 0.29-0.88 0.66l-0.68 2.28c-0.09 0.3-0.17 0.59-0.21 0.83c-0.04 0.13-0.06 0.26-0.08 0.39h-0.07c-0.01-0.13-0.03-0.26-0.06-0.39c-0.05-0.24-0.11-0.54-0.2-0.84l-0.66-2.21c-0.12-0.42-0.51-0.72-0.96-0.72c-0.55 0-1 0.45-1 1zm6.76-2.61c0 0.47 0.38 0.85 0.85 0.85h0.51c0.47 0 0.86-0.38 0.86-0.85c0-0.48-0.39-0.86-0.86-0.86h-0.51c-0.47 0-0.85 0.38-0.85 0.86zm0.08 6.76c0 0.56 0.47 1.02 1.03 1.02c0.56 0 1.02-0.46 1.02-1.02v-4.12c0-0.56-0.46-1.03-1.02-1.03c-0.56 0-1.03 0.47-1.03 1.03zm5.81 1.12c2.09 0 2.74-0.76 2.74-1.99c0-0.99-0.56-1.62-1.88-1.89l-0.86-0.18c-0.48-0.1-0.68-0.21-0.68-0.46c0-0.32 0.3-0.51 0.69-0.51c1.15 0 1.01 0.73 1.82 0.73c0.37 0 0.64-0.32 0.64-0.66c0-0.85-1.32-1.38-2.36-1.38c-1.63 0-2.72 0.67-2.72 1.95c0 0.98 0.65 1.61 2.01 1.88l0.74 0.15c0.54 0.11 0.64 0.26 0.64 0.48c0 0.36-0.28 0.53-0.7 0.53c-1.07 0-1.24-0.86-2-0.86c-0.54 0-0.82 0.29-0.82 0.9c0 0.91 1.19 1.31 2.74 1.31zm3.8-7.89c0 0.47 0.38 0.86 0.85 0.86h0.51c0.47 0 0.86-0.39 0.86-0.86c0-0.47-0.39-0.86-0.86-0.86h-0.51c-0.47 0-0.85 0.39-0.85 0.86zm0.08 6.77c0 0.56 0.47 1.02 1.03 1.02c0.56 0 1.02-0.46 1.02-1.02v-4.13c0-0.56-0.46-1.02-1.02-1.02c-0.56 0-1.03 0.46-1.03 1.02zm3.15-2.04c0 1.79 1.1 3.14 3.12 3.14c2.03 0 3.19-1.34 3.19-3.17c0-1.78-1.1-3.14-3.14-3.14c-2.03 0-3.17 1.34-3.17 3.17zm2.05-0.03c0-1.01 0.34-1.68 1.1-1.68c0.77 0 1.11 0.68 1.11 1.69c0 1.03-0.34 1.7-1.1 1.7c-0.76 0-1.11-0.67-1.11-1.71zm5.36 2.07c0 0.56 0.47 1.02 1.03 1.02c0.56 0 1.02-0.46 1.02-1.02v-2.28c0-1.14 0.57-1.35 0.99-1.35c0.35 0 0.87 0.18 0.87 1.1v2.53c0 0.56 0.46 1.02 1.02 1.02c0.56 0 1.03-0.46 1.03-1.02v-2.85c0-1.37-0.59-2.33-2.12-2.33c-1.02 0-1.64 0.55-1.93 1.13v-0.15c0-0.52-0.43-0.95-0.96-0.95c-0.52 0-0.95 0.43-0.95 0.95zm9.68-4.19c0 0.08 0.03 0.15 0.04 0.22l0.92 3.84c0.16 0.66 0.75 1.15 1.46 1.15c0.72 0 1.31-0.49 1.47-1.17l0.33-1.48c0.06-0.3 0.12-0.64 0.16-0.9l0.08-0.46h0.08c0.01 0.15 0.03 0.31 0.06 0.46c0.05 0.26 0.1 0.62 0.17 0.91l0.32 1.44c0.15 0.7 0.76 1.2 1.49 1.2c0.72 0 1.32-0.49 1.49-1.16l0.93-3.89c0.01-0.06 0.04-0.14 0.04-0.21c0-0.5-0.41-0.91-0.92-0.91c-0.44 0-0.81 0.31-0.89 0.74l-0.38 2.03c-0.07 0.37-0.14 0.82-0.19 1.2l-0.09 0.66h-0.06l-0.11-0.66c-0.07-0.38-0.15-0.83-0.24-1.2l-0.41-1.81c-0.12-0.54-0.62-0.96-1.2-0.96c-0.59 0-1.08 0.42-1.2 0.96l-0.42 1.81c-0.09 0.37-0.16 0.77-0.22 1.11l-0.1 0.58h-0.06l-0.08-0.58c-0.06-0.34-0.12-0.74-0.19-1.11l-0.38-2c-0.09-0.44-0.48-0.77-0.94-0.77c-0.53 0-0.96 0.43-0.96 0.96zm9.97-2.58c0 0.48 0.39 0.86 0.86 0.86h0.5c0.48 0 0.86-0.38 0.86-0.86c0-0.47-0.38-0.85-0.86-0.85h-0.5c-0.47 0-0.86 0.38-0.86 0.85zm0.09 6.77c0 0.56 0.46 1.02 1.02 1.02c0.56 0 1.02-0.46 1.02-1.02v-4.13c0-0.56-0.46-1.02-1.02-1.02c-0.56 0-1.02 0.46-1.02 1.02zm2.84-4.37c0 0.36 0.29 0.67 0.67 0.67h0.31l-0.02 2.63c-0.01 1.42 0.49 2.14 1.93 2.14c0.7 0 1.5-0.02 1.5-0.83c0-0.39-0.33-0.53-0.8-0.66c-0.24-0.07-0.59-0.2-0.59-0.83v-2.45h0.6c0.38 0 0.68-0.31 0.68-0.68c0-0.37-0.3-0.68-0.68-0.68h-0.64v-0.75c0-0.52-0.42-0.94-0.94-0.94c-0.49 0-0.91 0.4-0.93 0.88l-0.05 0.81h-0.37c-0.38 0-0.67 0.31-0.67 0.69zm5.34 4.37c0 0.57 0.46 1.03 1.03 1.03c0.56 0 1.02-0.46 1.02-1.03v-2.28c0-1.15 0.57-1.36 0.99-1.36c0.35 0 0.87 0.18 0.87 1.1v2.54c0 0.57 0.46 1.03 1.02 1.03c0.56 0 1.02-0.46 1.02-1.03v-2.86c0-1.37-0.58-2.33-2.11-2.33c-0.97 0-1.52 0.49-1.79 1.05v-2.54c0-0.56-0.46-1.03-1.02-1.03c-0.57 0-1.03 0.47-1.03 1.03zm10.08 2.45c0 0.56 0.46 1.02 1.02 1.02c0.56 0 1.02-0.46 1.02-1.02v-1.95c0.22 0.2 0.69 0.56 1.48 0.56c1.58 0 2.74-1.22 2.74-3.24c0-1.64-0.78-3-2.42-3c-1.04 0-1.54 0.46-1.96 1.03v-0.07c0-0.51-0.42-0.93-0.95-0.93c-0.51 0-0.93 0.42-0.93 0.93zm1.99-4.52c0-1.17 0.49-1.68 1.14-1.68c0.56 0 1.07 0.44 1.07 1.68c0 1.25-0.52 1.76-1.11 1.76c-0.59 0-1.1-0.45-1.1-1.76zm5.07 0.02c0 1.93 1.28 3.15 3.36 3.15c1.07 0 2.25-0.36 2.25-1.25c0-0.48-0.37-0.85-0.82-0.85c-0.68 0-0.77 0.66-1.6 0.66c-0.69 0-1.15-0.46-1.23-1.18h3.24c0.71 0 0.91-0.35 0.91-0.97c0-1.28-1.06-2.72-3.01-2.72c-1.91 0-3.1 1.34-3.1 3.16zm1.97-0.67c0.08-0.7 0.48-1.14 1.1-1.14c0.62 0 1.03 0.44 1.07 1.14zm5.19 2.72c0 0.56 0.46 1.02 1.02 1.02c0.56 0 1.02-0.46 1.02-1.02v-1.8c0-0.8 0.26-1.59 1.17-1.59c0.54 0 0.86-0.45 0.86-0.87c0-0.35-0.22-0.89-0.96-0.89c-0.65 0-0.94 0.68-1.16 1.21h-0.05v-0.26c0-0.52-0.43-0.95-0.96-0.95c-0.51 0-0.94 0.43-0.94 0.95zm4.35-4.39c0 0.37 0.3 0.68 0.68 0.68h0.3v3.71c0 0.56 0.47 1.02 1.03 1.02c0.56 0 1.02-0.46 1.02-1.02v-3.71h0.6c0.38 0 0.68-0.31 0.68-0.68c0-0.36-0.3-0.67-0.68-0.67h-0.6v-0.25c0-0.62 0.22-0.8 0.78-0.8c0.42 0 0.63-0.41 0.63-0.81c0-0.62-0.43-0.77-0.97-0.77c-1.79 0-2.49 0.81-2.49 2.44v0.19h-0.3c-0.38 0-0.68 0.31-0.68 0.67zm4.84 2.34c0 1.93 1.28 3.15 3.36 3.15c1.08 0 2.25-0.36 2.25-1.26c0-0.47-0.37-0.84-0.82-0.84c-0.68 0-0.77 0.66-1.6 0.66c-0.69 0-1.15-0.46-1.23-1.18h3.25c0.7 0 0.9-0.35 0.9-0.97c0-1.28-1.06-2.73-3-2.73c-1.92 0-3.11 1.35-3.11 3.17zm1.97-0.67c0.08-0.7 0.49-1.14 1.1-1.14c0.62 0 1.04 0.44 1.07 1.14zm4.86 0.67c0 1.92 0.99 3.15 3.09 3.15c1.15 0 2.53-0.41 2.53-1.46c0-0.53-0.31-0.84-0.83-0.84c-0.78 0-0.8 0.84-1.69 0.84c-0.58 0-1.05-0.47-1.05-1.7c0-1.19 0.45-1.69 1.05-1.69c0.89 0 0.87 0.73 1.63 0.73c0.5 0 0.8-0.28 0.8-0.79c0-1.03-1.3-1.41-2.35-1.41c-2.08 0-3.18 1.41-3.18 3.17zm6.06-2.33c0 0.36 0.3 0.67 0.67 0.67h0.31l-0.01 2.63c-0.01 1.42 0.49 2.15 1.93 2.15c0.69 0 1.49-0.03 1.49-0.84c0-0.39-0.33-0.53-0.79-0.66c-0.25-0.07-0.59-0.2-0.59-0.83v-2.45h0.6c0.38 0 0.67-0.31 0.67-0.68c0-0.36-0.29-0.67-0.67-0.67h-0.65v-0.76c0-0.52-0.42-0.94-0.93-0.94c-0.5 0-0.92 0.4-0.94 0.88l-0.04 0.82h-0.38c-0.37 0-0.67 0.31-0.67 0.68zm5.26-2.39c0 0.48 0.39 0.86 0.86 0.86h0.51c0.47 0 0.85-0.38 0.85-0.86c0-0.47-0.38-0.85-0.85-0.85h-0.51c-0.47 0-0.86 0.38-0.86 0.85zm0.09 6.77c0 0.56 0.46 1.02 1.02 1.02c0.56 0 1.03-0.46 1.03-1.02v-4.13c0-0.56-0.47-1.02-1.03-1.02c-0.56 0-1.02 0.46-1.02 1.02zm3.15-2.04c0 1.79 1.1 3.14 3.12 3.14c2.02 0 3.19-1.34 3.19-3.16c0-1.79-1.1-3.15-3.15-3.15c-2.02 0-3.16 1.34-3.16 3.17zm2.04-0.02c0-1.02 0.34-1.69 1.1-1.69c0.77 0 1.11 0.68 1.11 1.7c0 1.02-0.34 1.69-1.1 1.69c-0.76 0-1.11-0.67-1.11-1.7zm5.37 2.06c0 0.56 0.46 1.03 1.02 1.03c0.56 0 1.03-0.47 1.03-1.03v-2.27c0-1.15 0.57-1.36 0.99-1.36c0.35 0 0.86 0.18 0.86 1.1v2.53c0 0.56 0.47 1.03 1.03 1.03c0.56 0 1.02-0.47 1.02-1.03v-2.85c0-1.37-0.58-2.33-2.11-2.33c-1.02 0-1.64 0.55-1.94 1.14v-0.16c0-0.52-0.43-0.94-0.95-0.94c-0.52 0-0.95 0.42-0.95 0.94z" />
</svg>